<?xml version="1.0" encoding="utf-8"?>
<!-- Generator: Adobe Illustrator 22.1.0, SVG Export Plug-In . SVG Version: 6.00 Build 0)  -->
<svg version="1.1" id="Capa_1" xmlns="http://www.w3.org/2000/svg" xmlns:xlink="http://www.w3.org/1999/xlink" x="0px" y="0px"
	 viewBox="0 0 32 32" style="enable-background:new 0 0 32 32;" xml:space="preserve">
<style type="text/css">
	.st0{display:none;}
	.st1{display:inline;fill:#798F81;}
	.st2{fill:none;stroke:#FFFFFF;stroke-width:2;stroke-miterlimit:10;}
	.st3{fill:#797E8E;}
</style>
<g id="Capa_5" class="st0">
	<path class="st1" d="M22.5,2H9.5C5.3,2,2,5.4,2,9.4v7.2v5v7.8C2,29.7,2.2,30,2.6,30h26.8c0.4,0,0.6-0.3,0.6-0.6v-7.8v-5V9.4
		C30,5.4,26.6,2,22.5,2z"/>
</g>
<g id="Capa_10">
</g>
<g id="Capa_11">
</g>
<g id="Capa_7">
	<path class="st2" d="M18.9,7.8h-5.8C10.8,7.8,9,9.6,9,11.9V17v3.9V25h4.1h5.8H23v-3.8c0-0.1,0-0.2,0-0.3v-9
		C23,9.6,21.1,7.8,18.9,7.8z"/>
</g>
<g id="Capa_4">
	<rect x="9" y="17" class="st2" width="14" height="8"/>
</g>
<g id="Capa_6">
	<rect x="16" y="12.9" class="st2" width="0" height="12"/>
</g>
<g id="Capa_8">
	<path class="st3" d="M13.9,8.7"/>
</g>
<g id="Capa_9">
	<path class="st2" d="M19.5,8.1L19.5,8.1c-2,0-3.5,1.6-3.5,3.5v1.5v0.4V17h3.5h0H23v-3.5v-0.4v-1.5C23,9.7,21.4,8.1,19.5,8.1z"/>
	<path class="st2" d="M12.5,8.1L12.5,8.1c-2,0-3.5,1.6-3.5,3.5v1.5v0.4V17h3.5h0H16v-3.5v-0.4v-1.5C16,9.7,14.4,8.1,12.5,8.1z"/>
	<path class="st2" d="M13.4,17h-0.8h0H9v3.1v0.4v1.4V25h4.4v-0.1c1.5-0.3,2.6-1.6,2.6-3v-1.4v-0.4V17H13.4z"/>
	<path class="st2" d="M18.6,17h0.8h0H23v3.1v0.4v1.4V25h-4.4v-0.1c-1.5-0.3-2.6-1.6-2.6-3v-1.4v-0.4V17H18.6z"/>
</g>
</svg>
