<?xml version="1.0" encoding="utf-8"?>
<!-- Generator: Adobe Illustrator 22.1.0, SVG Export Plug-In . SVG Version: 6.00 Build 0)  -->
<svg version="1.1" xmlns="http://www.w3.org/2000/svg" xmlns:xlink="http://www.w3.org/1999/xlink" x="0px" y="0px"
	 viewBox="0 0 1080 1080" style="enable-background:new 0 0 1080 1080;" xml:space="preserve">
<style type="text/css">
	.st0{display:none;}
	.st1{enable-background:new    ;}
	.st2{fill:#405B48;}
</style>
<g id="Capa_1" class="st0">
	<g class="st1">
		<image style="display:inline;overflow:visible;" width="1080" height="1080" xlink:href="C22822FA.png" >
		</image>
	</g>
	<path class="st2" d="M681.119,447.784c34.006,33.942,34.057,89.026,0.114,123.031L669.1,582.97L561.388,690.89
		c-8.393,8.41-22.015,8.423-30.425,0.03L423.043,583.209l-12.16-12.136c-34.007-33.941-34.059-89.024-0.117-123.03l0,0
		c33.942-34.006,89.026-34.057,123.031-0.114l12.155,12.133l12.136-12.16C592.029,413.894,647.112,413.841,681.119,447.784
		L681.119,447.784z"/>
	<path class="st2" d="M540,123.412c-232.56,0-421.087,188.527-421.087,421.087S307.44,965.586,540,965.586
		s421.087-188.527,421.087-421.087S772.56,123.412,540,123.412z M538.983,942.462c-219.522,0-397.48-177.958-397.48-397.48
		s177.958-397.48,397.48-397.48s397.48,177.958,397.48,397.48S758.505,942.462,538.983,942.462z"/>
</g>
<g id="Capa_2">
	<path class="st2" d="M540,123.412c-232.56,0-421.087,188.527-421.087,421.087S307.44,965.586,540,965.586
		s421.087-188.527,421.087-421.087S772.56,123.412,540,123.412z M538.983,942.462c-219.522,0-397.48-177.958-397.48-397.48
		s177.958-397.48,397.48-397.48s397.48,177.958,397.48,397.48S758.505,942.462,538.983,942.462z"/>
	<path class="st2" d="M540,230.051c-173.665,0-314.449,140.784-314.449,314.449S366.335,858.948,540,858.948
		s314.449-140.784,314.449-314.449S713.665,230.051,540,230.051z M681.233,570.814L669.1,582.97L561.388,690.89
		c-8.393,8.41-22.015,8.423-30.425,0.03L423.043,583.209l-12.16-12.136c-34.007-33.941-34.059-89.024-0.117-123.03l0,0
		c33.942-34.006,89.026-34.057,123.031-0.114l12.155,12.133l12.136-12.16c33.941-34.007,89.024-34.059,123.03-0.117l0,0
		C715.125,481.726,715.176,536.809,681.233,570.814z"/>
</g>
</svg>
