<?xml version="1.0" encoding="utf-8"?>
<!-- Generator: Adobe Illustrator 22.1.0, SVG Export Plug-In . SVG Version: 6.00 Build 0)  -->
<svg version="1.1" id="Capa_1" xmlns="http://www.w3.org/2000/svg" xmlns:xlink="http://www.w3.org/1999/xlink" x="0px" y="0px"
	 viewBox="0 0 612 792" style="enable-background:new 0 0 612 792;" xml:space="preserve">
<style type="text/css">
	.st0{fill:none;stroke:#3A473C;stroke-width:3;stroke-miterlimit:10;}
	.st1{fill:#3A473C;}
</style>
<line class="st0" x1="328.674" y1="22" x2="328.674" y2="476.002"/>
<path class="st0" d="M315.274,468.908l-55.174-282.175c-2.241-8.313-4.29-18.105-5.517-29.163c-0.937-8.44-2.15-19.728-0.788-33.892
	c0.93-9.675,3.362-23.867,10.247-40.198c1.891-3.937,4.654-8.772,8.67-13.793c4.541-5.677,9.231-9.777,13.005-12.611
	c2.805-2.522,6.331-5.286,10.641-7.882c7.1-4.278,13.806-6.584,18.917-7.882h19.705"/>
<path class="st0" d="M343.65,468.908l55.174-282.175c2.241-8.313,4.29-18.105,5.517-29.163c0.937-8.44,2.15-19.728,0.788-33.892
	c-0.93-9.675-3.362-23.867-10.247-40.198c-1.891-3.937-4.654-8.772-8.67-13.793c-4.541-5.677-9.231-9.777-13.005-12.611
	c-2.805-2.522-6.331-5.286-10.641-7.882c-7.1-4.278-13.806-6.584-18.917-7.882h-19.705"/>
<path class="st0" d="M343.833,478.12l29.862-312.915l3.242-45.716c0.875-11.66,0.917-25.08-0.788-39.804
	c-0.624-5.391-1.432-10.52-2.365-15.37c-0.315-1.639-5.451-15.792-6.276-16.567c-2.1-2.403-4.147-4.353-5.941-5.897
	c-1.645-1.416-3.726-3.107-6.306-4.729c-1.161-0.73-2.762-1.696-4.729-2.759c-1.314-0.788-3.169-1.716-5.517-2.365
	c-2.695-0.744-5.047-0.846-6.7-0.788c-1.992,0.069-4.676-0.145-7.882,0"/>
<path class="st0" d="M314.773,478.12l-29.862-312.915l-3.242-45.716c-0.875-11.66-0.917-25.08,0.788-39.804
	c0.624-5.391,1.432-10.52,2.365-15.37c0.315-1.639,5.451-15.792,6.276-16.567c2.1-2.403,4.147-4.353,5.941-5.897
	c1.645-1.416,3.726-3.107,6.306-4.729c1.161-0.73,2.762-1.696,4.729-2.759c1.314-0.788,3.169-1.716,5.517-2.365
	c2.695-0.744,5.047-0.846,6.7-0.788c1.992,0.069,4.676-0.145,7.882,0"/>
<path class="st1" d="M348.252,743.99h-38.378c-2.888,0-5.25-2.362-5.25-5.25V471.794c0-2.888,2.362-5.25,5.25-5.25h38.378
	c2.887,0,5.25,2.362,5.25,5.25V738.74C353.502,741.627,351.14,743.99,348.252,743.99z"/>
<path class="st0" d="M334.132,770h-11.705c-2.2,0-4-1.8-4-4v-66.091c0-2.2,1.8-4,4-4h11.705c2.2,0,4,1.8,4,4V766
	C338.132,768.2,336.332,770,334.132,770z"/>
<path class="st0" d="M336.457,473.243l15.966-308.913l1.733-45.131c0.468-11.511,0.49-24.759-0.421-39.295
	c-0.334-5.322-0.766-10.385-1.264-15.173c-0.168-1.618-2.915-15.59-3.355-16.355c-1.123-2.373-2.217-4.298-3.177-5.822
	c-0.88-1.397-1.992-3.067-3.371-4.669c-0.621-0.721-1.477-1.675-2.529-2.723c-0.703-0.778-1.695-1.694-2.95-2.334
	c-1.441-0.735-2.698-0.835-3.582-0.778c-1.065,0.069-2.5-0.143-4.214,0"/>
<path class="st0" d="M320.919,473.243l-15.966-308.913l-1.733-45.131c-0.468-11.511-0.49-24.759,0.421-39.295
	c0.334-5.322,0.766-10.385,1.264-15.173c0.168-1.618,2.915-15.59,3.355-16.355c1.123-2.373,2.217-4.298,3.177-5.822
	c0.88-1.397,1.992-3.067,3.371-4.669c0.621-0.721,1.477-1.675,2.529-2.723c0.703-0.778,1.695-1.694,2.95-2.334
	c1.441-0.735,2.698-0.835,3.582-0.778c1.065,0.069,2.5-0.143,4.214,0"/>
</svg>
