<?xml version="1.0" encoding="utf-8"?>
<!-- Generator: Adobe Illustrator 22.1.0, SVG Export Plug-In . SVG Version: 6.00 Build 0)  -->
<svg version="1.1" id="Capa_1" xmlns="http://www.w3.org/2000/svg" xmlns:xlink="http://www.w3.org/1999/xlink" x="0px" y="0px"
	 viewBox="0 0 612 792" style="enable-background:new 0 0 612 792;" xml:space="preserve">
<style type="text/css">
	.st0{fill:#546052;}
	.st1{fill:none;stroke:#546052;stroke-miterlimit:10;}
</style>
<ellipse transform="matrix(0.0318 -0.9995 0.9995 0.0318 164.4335 470.1421)" class="st0" cx="324.885" cy="150.197" rx="71.916" ry="48.974"/>
<path class="st0" d="M330.614,114.604h-11.481c-23.66,0-43.018,19.358-43.018,43.018v21.454c0,23.66,19.358,43.018,43.018,43.018
	h11.481c23.66,0,43.018-19.358,43.018-43.018v-21.454C373.632,133.962,354.274,114.604,330.614,114.604z"/>
<path class="st0" d="M349.737,215.692"/>
<polyline class="st1" points="311.9,709.591 328.676,710.713 336.696,709.775 342.335,707.232 345.242,702.268 345.737,694.332 
	341.915,627.13 334.196,458.824 332.086,347.578 333.475,234.309 340.189,213.217 "/>
<polyline class="st1" points="312.438,212.692 319.055,233.805 319.928,347.077 317.311,458.316 308.825,626.597 304.696,693.787 
	305.156,701.724 308.039,706.697 311.9,709.591 322.331,710.288 "/>
<path class="st0" d="M338.93,220.849"/>
<polygon class="st0" points="317.033,219.686 338.649,218.052 332.737,228.151 330.585,231.828 333.448,236.494 329.39,251.233 
	333.055,268.57 336.671,224.268 "/>
<path class="st0" d="M317.078,236.771"/>
<polyline class="st0" points="314.33,218.728 319.055,233.805 319.211,254.09 319.906,344.277 332.086,347.578 334.469,232.439 
	337.685,222.536 328.209,218.841 "/>
<polygon class="st0" points="319.906,344.277 314.948,505.17 311.607,571.415 307.57,647.012 304.696,693.787 345.096,683.055 
	338.23,546.781 335.148,479.583 333.553,424.933 332.685,379.192 332.148,344.561 "/>
<polygon class="st0" points="345.096,683.055 345.242,702.268 342.335,707.232 336.696,709.775 325.476,710.499 311.9,709.591 
	308.039,706.697 305.156,701.724 304.696,693.787 338.986,674.086 "/>
<polyline class="st1" points="340.324,709.853 323.548,710.975 315.528,710.037 309.888,707.494 306.982,702.53 306.487,694.594 
	310.309,627.392 318.028,459.086 320.138,347.84 318.749,234.572 312.035,213.479 "/>
<polyline class="st1" points="339.786,212.954 333.169,234.067 332.296,347.339 334.913,458.578 343.399,626.859 347.528,694.049 
	347.068,701.987 344.185,706.959 340.324,709.853 329.893,710.551 "/>
<polygon class="st0" points="335.191,219.948 313.574,218.315 319.487,228.413 321.639,232.09 318.776,236.757 322.834,251.496 
	319.169,268.833 315.553,224.531 "/>
<path class="st0" d="M331.146,237.033"/>
<polyline class="st0" points="337.894,218.991 333.169,234.067 333.012,254.352 332.318,344.54 320.138,347.84 317.755,232.701 
	314.539,222.798 324.015,219.104 "/>
<polygon class="st0" points="332.318,344.54 337.276,505.433 340.617,571.677 344.654,647.275 347.528,694.049 307.128,683.317 
	313.994,547.043 317.076,479.845 318.671,425.195 319.538,379.455 320.076,344.823 "/>
<polygon class="st0" points="307.128,683.317 306.982,702.53 309.888,707.494 315.528,710.037 326.748,710.761 340.324,709.853 
	344.185,706.959 347.068,701.987 347.528,694.049 313.238,674.348 "/>
</svg>
